<svg width="24" height="24" viewBox="0 0 24 24" fill="none" xmlns="http://www.w3.org/2000/svg">
<path d="M9.81787 12C9.81787 12.5304 10.0286 13.0391 10.4037 13.4142C10.7787 13.7893 11.2874 14 11.8179 14C12.3483 14 12.857 13.7893 13.2321 13.4142C13.6072 13.0391 13.8179 12.5304 13.8179 12C13.8179 11.4696 13.6072 10.9609 13.2321 10.5858C12.857 10.2107 12.3483 10 11.8179 10C11.2874 10 10.7787 10.2107 10.4037 10.5858C10.0286 10.9609 9.81787 11.4696 9.81787 12Z" stroke="#BABAB9" stroke-width="2" stroke-linecap="round" stroke-linejoin="round"/>
<path d="M21.8179 12C19.1509 16.667 15.8179 19 11.8179 19C7.81787 19 4.48487 16.667 1.81787 12C4.48487 7.333 7.81787 5 11.8179 5C15.8179 5 19.1509 7.333 21.8179 12Z" stroke="#BABAB9" stroke-width="2" stroke-linecap="round" stroke-linejoin="round"/>
</svg>
